<?xml version="1.0" encoding="UTF-8" standalone="no"?>
<svg xmlns="http://www.w3.org/2000/svg" viewBox="0.467595 0.835338 0.543897 0.579288">
  <path d="M0.858406,1.274382 C0.85843,1.273702 0.858242,1.272903 0.857927,1.272301 C0.85759,1.271659 0.857,1.27102 0.856401,1.27061 C0.855736,1.270156 0.854835,1.26982 0.854038,1.269697 C0.853132,1.269555 0.852051,1.269629 0.851163,1.269855 C0.850151,1.270114 0.849045,1.270652 0.848197,1.27126 C0.847232,1.27195 0.846274,1.272957 0.845602,1.273934 C0.844846,1.275035 0.844202,1.276457 0.843842,1.277744 C0.84344,1.27918 0.843258,1.280911 0.843323,1.282402 C0.843394,1.284052 0.843786,1.285936 0.844351,1.287488 C0.844972,1.289194 0.845996,1.291043 0.847091,1.29249 C0.848285,1.294071 0.84994,1.295676 0.85154,1.296845 C0.853274,1.298112 0.855489,1.299268 0.857513,1.299991 C0.859696,1.300771 0.862337,1.301293 0.864652,1.30143 C0.867136,1.301576 0.870014,1.301327 0.872442,1.300778 C0.875037,1.300192 0.877919,1.299086 0.880252,1.297808 C0.882736,1.296447 0.885364,1.294474 0.887382,1.292487 C0.889522,1.290378 0.891635,1.287606 0.893122,1.284995 C0.894696,1.282234 0.896053,1.278807 0.896821,1.275723 C0.897631,1.272471 0.898035,1.268604 0.897939,1.265255 C0.897839,1.261731 0.897157,1.257699 0.896116,1.254331 C0.895022,1.250797 0.893202,1.246912 0.891203,1.243798 C0.889111,1.240538 0.886188,1.237125 0.883302,1.234541 C0.880285,1.231839 0.876392,1.229215 0.872767,1.227414 C0.868984,1.225534 0.864341,1.223972 0.860195,1.223164 C0.855878,1.222321 0.850785,1.222034 0.846398,1.222365 C0.841836,1.222709 0.83665,1.223822 0.832341,1.22536 C0.827868,1.226957 0.822979,1.229493 0.819086,1.232215 C0.815048,1.235036 0.810852,1.238911 0.8077,1.242697 C0.804438,1.246618 0.801302,1.251634 0.799186,1.256276 C0.796996,1.261078 0.795232,1.266937 0.794384,1.272146 C0.793506,1.277529 0.793338,1.283849 0.793906,1.289273 C0.794492,1.294872 0.796037,1.301213 0.798073,1.306462 C0.800171,1.311875 0.803425,1.317768 0.80687,1.322441 C0.810419,1.327256 0.815245,1.332236 0.819932,1.335953 C0.824759,1.33978 0.830895,1.343426 0.836555,1.345855 C0.842377,1.348354 0.849451,1.350322 0.855724,1.351209 C0.862171,1.352122 0.869718,1.352172 0.876181,1.351367 C0.882817,1.350539 0.890313,1.348562 0.896503,1.346029 C0.902855,1.343428 0.909752,1.339459 0.915204,1.335289 C0.920798,1.331012 0.926562,1.325235 0.930844,1.319645 C0.935234,1.313915 0.939391,1.306656 0.942133,1.299979 C0.944942,1.293138 0.947113,1.284848 0.948039,1.277512 C0.948987,1.27 0.94892,1.261225 0.947876,1.253726 C0.946807,1.246052 0.944399,1.237402 0.941367,1.230271 C0.938265,1.222978 0.93358,1.215078 0.928685,1.208846 C0.92368,1.202474 0.916952,1.195926 0.91046,1.191079 C0.903826,1.186126 0.895445,1.181456 0.88775,1.178403 C0.879892,1.175284 0.870384,1.172909 0.861984,1.171944 C0.853408,1.17096 0.843406,1.171146 0.834869,1.172429 C0.826158,1.173737 0.816351,1.176578 0.808281,1.180109 C0.800049,1.183711 0.791145,1.189113 0.784134,1.194733 C0.776984,1.200465 0.769651,1.208145 0.764239,1.215539 C0.758722,1.223076 0.753541,1.232579 0.750175,1.241292 C0.746746,1.25017 0.744168,1.260893 0.743165,1.270357 C0.742144,1.279997 0.742448,1.291227 0.74397,1.300801 C0.745518,1.31055 0.748792,1.321511 0.752822,1.330522 C0.756924,1.339695 0.763041,1.349603 0.769388,1.357393 C0.775846,1.365321 0.784478,1.373439 0.792774,1.379415 C0.801215,1.385496 0.81184,1.391188 0.821572,1.394866 C0.831467,1.398606 0.843408,1.401388 0.853936,1.402428 C0.86464,1.403486 0.877097,1.403063 0.887709,1.401303 C0.898495,1.399514 0.910612,1.395809 0.920563,1.39128 C0.930675,1.386677 0.941587,1.379843 0.950156,1.372771 C0.958863,1.365587 0.967765,1.356003 0.974306,1.346804 C0.98095,1.33746 0.987154,1.325712 0.991144,1.314963 C0.995195,1.304049 0.998181,1.290892 0.999258,1.2793 C1.000352,1.267532 0.999811,1.253846 0.997813,1.242197 C0.995784,1.230373 0.991646,1.217102 0.986617,1.206211 C0.981514,1.195158 0.973964,1.183243 0.966167,1.173894 C0.958256,1.164409 0.94772,1.154722 0.937618,1.147617 C0.927371,1.140409 0.914501,1.133694 0.902734,1.129392 C0.890802,1.125031 0.876428,1.121841 0.863774,1.120686 C0.852535,1.11966 0.839784,1.116743 0.82921,1.112795 C0.8188,1.10891 0.807426,1.102876 0.798383,1.09642 C0.789485,1.090067 0.780218,1.081426 0.773276,1.07298 C0.766446,1.06467 0.759851,1.054092 0.755415,1.044293 C0.751052,1.034656 0.747491,1.022925 0.745782,1.012485 C0.744102,1.002218 0.743719,0.99017 0.744764,0.97982 C0.745792,0.969647 0.748506,0.958112 0.752142,0.948555 C0.755717,0.939165 0.761238,0.928913 0.767131,0.920774 C0.772918,0.912777 0.780775,0.904463 0.788443,0.898247 C0.795974,0.892143 0.805547,0.886264 0.814407,0.882329 C0.823104,0.878465 0.83368,0.875336 0.843083,0.873867 C0.852311,0.872426 0.863132,0.87216 0.872417,0.873169 C0.881527,0.874159 0.891845,0.87667 0.900383,0.879996 C0.908757,0.883258 0.917886,0.888267 0.925121,0.893596 C0.932216,0.89882 0.939578,0.905892 0.945067,0.912782 C0.950446,0.919533 0.955609,0.928102 0.959044,0.936022 C0.962408,0.943779 0.965105,0.9532 0.966334,0.961565 C0.967537,0.969757 0.967684,0.979349 0.966711,0.987571 C0.965759,0.995616 0.963452,1.004718 0.960437,1.012238 C0.957487,1.019593 0.952988,1.027601 0.948223,1.033932 C0.943565,1.040124 0.937277,1.046535 0.931165,1.051298 C0.925192,1.055951 0.917628,1.060397 0.910648,1.063332 C0.903831,1.066198 0.895565,1.068462 0.888237,1.06945 C0.881083,1.070415 0.872718,1.070443 0.865561,1.069507 C0.858579,1.068593 0.850694,1.06649 0.844193,1.063785 C0.837856,1.061147 0.83097,1.05716 0.825542,1.052958 C0.820253,1.048864 0.814793,1.043361 0.810758,1.038028 C0.80683,1.032834 0.8031,1.026273 0.800665,1.020233 C0.798298,1.014357 0.796465,1.007246 0.795719,1.000956 C0.794992,0.994839 0.795082,0.987701 0.795982,0.981608 C0.796858,0.975691 0.798758,0.969022 0.801153,0.96354 C0.803478,0.958219 0.806954,0.952457 0.810592,0.947931 C0.814121,0.943545 0.818839,0.939036 0.823396,0.935729 C0.827809,0.932525 0.833367,0.929511 0.838467,0.927579 C0.843403,0.92571 0.849358,0.924308 0.854611,0.923803 C0.85969,0.923314 0.865601,0.923522 0.870629,0.924387 C0.875484,0.925224 0.880936,0.92692 0.885399,0.929006 C0.889703,0.931017 0.894344,0.933983 0.897964,0.937058 C0.90145,0.940021 0.905007,0.943955 0.907586,0.947734 C0.910065,0.951368 0.912364,0.955922 0.913793,0.960082 C0.915165,0.964077 0.916135,0.968878 0.916398,0.973094 C0.91665,0.977136 0.916324,0.98182 0.915493,0.985782 C0.914697,0.989573 0.913204,0.993811 0.911426,0.997253 C0.909729,1.000541 0.907275,1.004061 0.904761,1.006774 C0.902365,1.00936 0.899214,1.011967 0.896213,1.013816 C0.893359,1.015573 0.889808,1.017156 0.886587,1.018081 C0.883533,1.018958 0.879886,1.019496 0.876708,1.019514 C0.873704,1.019532 0.870246,1.019087 0.86735,1.018289 C0.86462,1.017535 0.861597,1.016244 0.859178,1.014774 C0.856904,1.013393 0.854505,1.011449 0.8527,1.009496 C0.851011,1.007668 0.849355,1.005299 0.84824,1.003076 C0.847201,1.001003 0.846333,0.998454 0.845917,0.996172 C0.845531,0.994058 0.845425,0.991563 0.845654,0.989427 C0.845867,0.987456 0.84643,0.985223 0.847201,0.983398 C0.847908,0.981725 0.848996,0.979914 0.850163,0.978523 C0.851225,0.977258 0.852662,0.975977 0.854055,0.97509 C0.855313,0.974289 0.856903,0.973581 0.858348,0.973211 C0.859642,0.972879 0.861195,0.972725 0.862527,0.97283 C0.86371,0.972923 0.86506,0.97325 0.86614,0.973739 C0.867092,0.97417 0.868111,0.974858 0.86884,0.975607 C0.86948,0.976262 0.870084,0.977162 0.870415,0.978016 C0.870706,0.978769 0.870867,0.979716 0.870806,0.980521 C0.87075,0.981243 0.870491,0.982074 0.870104,0.982686 C0.86974,0.983261 0.869143,0.983824 0.868543,0.984143 C0.867942,0.984462 0.867344,0.985024 0.86698,0.985599 C0.866593,0.986211 0.866334,0.987042 0.866279,0.987764 C0.866217,0.988569 0.866378,0.989517 0.866669,0.990269 C0.867,0.991123 0.867604,0.992024 0.868244,0.992679 C0.868975,0.993427 0.869992,0.994115 0.870944,0.994546 C0.872024,0.995035 0.873375,0.995363 0.874557,0.995456 C0.875889,0.99556 0.877442,0.995407 0.878736,0.995074 C0.880181,0.994705 0.881772,0.993996 0.883029,0.993195 C0.884424,0.992309 0.885859,0.991027 0.886921,0.989762 C0.888088,0.988371 0.889176,0.98656 0.889884,0.984887 C0.890655,0.983063 0.891218,0.980829 0.89143,0.978859 C0.89166,0.976722 0.891553,0.974227 0.891168,0.972113 C0.890751,0.969832 0.889884,0.967282 0.888845,0.96521 C0.887729,0.962986 0.886073,0.960617 0.884384,0.95879 C0.882579,0.956837 0.88018,0.954893 0.877908,0.953512 C0.875487,0.952041 0.872464,0.950751 0.869734,0.949997 C0.866839,0.949198 0.86338,0.948753 0.860376,0.948771 C0.857198,0.948789 0.853551,0.949328 0.850497,0.950205 C0.847276,0.951129 0.843725,0.952712 0.840872,0.954469 C0.83787,0.956319 0.834719,0.958925 0.832323,0.961511 C0.82981,0.964225 0.827355,0.967745 0.825658,0.971032 C0.823881,0.974474 0.822388,0.978712 0.821592,0.982503 C0.82076,0.986465 0.820434,0.99115 0.820687,0.995191 C0.820949,0.999407 0.821919,1.004208 0.823292,1.008203 C0.824721,1.012364 0.827019,1.016918 0.829499,1.020552 C0.832078,1.02433 0.835635,1.028264 0.839121,1.031227 C0.84274,1.034303 0.847382,1.037268 0.851685,1.03928 C0.856148,1.041365 0.861601,1.043062 0.866455,1.043898 C0.871483,1.044764 0.877394,1.044971 0.882473,1.044483 C0.887727,1.043977 0.893682,1.042576 0.898618,1.040707 C0.903717,1.038775 0.909275,1.035761 0.913689,1.032556 C0.918245,1.02925 0.922963,1.02474 0.926492,1.020354 C0.93013,1.015829 0.933607,1.010067 0.935931,1.004746 C0.938326,0.999263 0.940226,0.992594 0.941102,0.986677 C0.942002,0.980584 0.942092,0.973446 0.941366,0.96733 C0.940619,0.961039 0.938786,0.953928 0.936419,0.948053 C0.933986,0.942013 0.930255,0.935451 0.926327,0.930258 C0.922292,0.924924 0.916832,0.919422 0.911543,0.915327 C0.906114,0.911126 0.899229,0.907138 0.892891,0.904501 C0.88639,0.901795 0.878505,0.899692 0.871523,0.898778 C0.864366,0.897842 0.856001,0.89787 0.848847,0.898835 C0.841519,0.899823 0.833253,0.902088 0.826437,0.904954 C0.819457,0.907888 0.811892,0.912334 0.805919,0.916988 C0.799807,0.92175 0.793521,0.928161 0.788861,0.934353 C0.784096,0.940685 0.779598,0.948692 0.776648,0.956048 C0.773632,0.963568 0.771325,0.972669 0.770373,0.980715 C0.7694,0.988936 0.769548,0.998529 0.77075,1.00672 C0.771979,1.015085 0.774676,1.024506 0.77804,1.032263 C0.781476,1.040183 0.786638,1.048752 0.792017,1.055504 C0.797506,1.062393 0.80487,1.069466 0.811963,1.074689 C0.819198,1.080018 0.828328,1.085028 0.836701,1.08829 C0.84524,1.091616 0.855557,1.094127 0.864667,1.095116 C0.873952,1.096125 0.884773,1.09586 0.894002,1.094418 C0.903405,1.09295 0.913981,1.089821 0.922678,1.085957 C0.931537,1.082022 0.94111,1.076142 0.948641,1.070038 C0.956309,1.063822 0.964166,1.055508 0.969955,1.047512 C0.975847,1.039372 0.981369,1.029121 0.984942,1.01973 C0.988579,1.010173 0.991293,0.998638 0.99232,0.988465 C0.993366,0.978115 0.992982,0.966067 0.991302,0.955801 C0.989593,0.945361 0.986033,0.933629 0.98167,0.923992 C0.977233,0.914193 0.970638,0.903615 0.963808,0.895305 C0.956866,0.886859 0.9476,0.878218 0.938701,0.871865 C0.929658,0.865409 0.918284,0.859375 0.907875,0.85549 C0.8973,0.851542 0.884549,0.848625 0.873312,0.84756 C0.861899,0.846478 0.848622,0.846979 0.837319,0.848899 C0.825841,0.850848 0.812954,0.854841 0.802376,0.859702 C0.791638,0.864639 0.780056,0.871951 0.770967,0.879506 C0.761742,0.887175 0.752317,0.897393 0.745399,0.907194 C0.738379,0.91714 0.731834,0.929636 0.727637,0.941064 C0.723379,0.952657 0.720258,0.966625 0.719155,0.978926 C0.718036,0.991404 0.718656,1.005908 0.720814,1.018248 C0.723003,1.030763 0.727428,1.044806 0.732754,1.056342 C0.737486,1.066588 0.741334,1.07909 0.743203,1.090222 C0.745042,1.101179 0.745505,1.114047 0.744434,1.125105 C0.743382,1.135988 0.740532,1.148334 0.736688,1.158569 C0.732907,1.168638 0.727044,1.179639 0.720776,1.188381 C0.714611,1.196978 0.706232,1.205927 0.698044,1.212627 C0.689994,1.219215 0.679751,1.225572 0.670266,1.229841 C0.660942,1.234038 0.649596,1.237454 0.639501,1.239084 C0.629581,1.240684 0.617942,1.241028 0.607947,1.239994 C0.598128,1.23898 0.586999,1.236333 0.577782,1.2328 C0.56873,1.229331 0.558852,1.22398 0.551015,1.218275 C0.543319,1.212675 0.535322,1.20508 0.529348,1.197671 C0.523485,1.1904 0.517846,1.181161 0.514076,1.172615 C0.510379,1.164232 0.507394,1.15404 0.506006,1.144983 C0.504644,1.1361 0.504418,1.125689 0.505415,1.116759 C0.506392,1.108004 0.508834,1.098091 0.512057,1.089892 C0.515215,1.081858 0.520054,1.073103 0.525195,1.066168 C0.530231,1.059375 0.537041,1.05233 0.543672,1.047083 C0.550164,1.041946 0.558398,1.037022 0.566005,1.033754 C0.573448,1.030555 0.582484,1.028002 0.590503,1.026855 C0.598349,1.025731 0.607533,1.025624 0.6154,1.026584 C0.62309,1.027524 0.631786,1.029763 0.638966,1.032675 C0.645983,1.03552 0.653616,1.039848 0.659647,1.044425 C0.665537,1.048896 0.671632,1.054922 0.676151,1.060774 C0.680564,1.066488 0.684771,1.073718 0.687538,1.080384 C0.690238,1.086887 0.692359,1.094768 0.693267,1.10175 C0.694152,1.108558 0.69414,1.116514 0.693216,1.123317 C0.692316,1.129944 0.69028,1.137424 0.687678,1.143585 C0.685144,1.149584 0.681328,1.156095 0.677313,1.161222 C0.673408,1.16621 0.668167,1.171353 0.663092,1.175146 C0.658159,1.178832 0.651932,1.182324 0.646206,1.18459 C0.640643,1.186791 0.633917,1.188481 0.627972,1.189147 C0.622202,1.189794 0.615473,1.189665 0.609735,1.188776 C0.604172,1.187914 0.597908,1.186082 0.592766,1.18379 C0.587784,1.181569 0.582395,1.178263 0.578172,1.174812 C0.574085,1.171473 0.569895,1.167016 0.56683,1.162719 C0.563868,1.158565 0.561092,1.153342 0.559327,1.148555 C0.557624,1.143933 0.556367,1.138362 0.555942,1.133454 C0.555532,1.128721 0.55578,1.123219 0.556633,1.118547 C0.557456,1.114047 0.559085,1.108999 0.561068,1.104877 C0.562974,1.100912 0.565769,1.096644 0.568658,1.093327 C0.571431,1.090141 0.575105,1.086901 0.578624,1.084565 C0.581998,1.082326 0.586217,1.080266 0.590065,1.079005 C0.593746,1.077798 0.598162,1.076973 0.602032,1.07679 C0.605728,1.076616 0.610004,1.076982 0.613611,1.077802 C0.617048,1.078584 0.620881,1.08001 0.623983,1.081684 C0.626931,1.083277 0.630077,1.085561 0.632489,1.087888 C0.634776,1.090095 0.637065,1.092985 0.63867,1.095727 C0.640187,1.098319 0.641532,1.101536 0.642287,1.104445 C0.642999,1.107186 0.643394,1.110448 0.64333,1.113279 C0.643271,1.115938 0.642787,1.118989 0.641998,1.121528 C0.641259,1.123905 0.640037,1.126523 0.638667,1.128601 C0.637392,1.130537 0.635619,1.132563 0.633851,1.134064 C0.632213,1.135455 0.630105,1.136795 0.62814,1.137664 C0.626328,1.138465 0.624112,1.139095 0.622145,1.139339 C0.620343,1.139563 0.618231,1.139526 0.616443,1.13921 C0.614817,1.138924 0.612989,1.138321 0.611524,1.137558 C0.610202,1.136868 0.608793,1.135845 0.60775,1.13478 C0.606815,1.133825 0.605907,1.132556 0.60533,1.131351 C0.60482,1.13028 0.604428,1.128947 0.604311,1.127767 C0.604209,1.126727 0.604296,1.125501 0.604578,1.124494 C0.604826,1.123612 0.605304,1.122639 0.605878,1.121925 C0.606384,1.121298 0.607124,1.120685 0.607852,1.120336 C0.608505,1.120023 0.609354,1.119831 0.610078,1.11986 C0.610758,1.119888 0.611543,1.120125 0.612121,1.120484 C0.612697,1.120845 0.613483,1.121082 0.614162,1.121109 C0.614886,1.121139 0.615735,1.120947 0.616389,1.120633 C0.617116,1.120284 0.617856,1.119672 0.618362,1.119044 C0.618937,1.11833 0.619415,1.117357 0.619662,1.116475 C0.619944,1.115469 0.620031,1.114242 0.619929,1.113203 C0.619813,1.112022 0.61942,1.110689 0.61891,1.109619 C0.618335,1.108414 0.617425,1.107144 0.61649,1.10619 C0.615447,1.105124 0.61404,1.104101 0.612716,1.103411 C0.611252,1.102649 0.609424,1.102046 0.607797,1.101759 C0.606009,1.101444 0.603897,1.101406 0.602095,1.10163 C0.600129,1.101875 0.597912,1.102504 0.5961,1.103305 C0.594135,1.104174 0.592027,1.105514 0.590389,1.106906 C0.588623,1.108406 0.586848,1.110432 0.585573,1.112368 C0.584204,1.114446 0.582981,1.117065 0.582242,1.119442 C0.581454,1.121981 0.580969,1.125031 0.58091,1.12769 C0.580846,1.130521 0.581241,1.133784 0.581953,1.136525 C0.582709,1.139433 0.584053,1.14265 0.585571,1.145243 C0.587176,1.147985 0.589465,1.150875 0.591752,1.153081 C0.594163,1.155409 0.597309,1.157693 0.600258,1.159285 C0.60336,1.160959 0.607192,1.162385 0.61063,1.163167 C0.614237,1.163987 0.618512,1.164352 0.622208,1.164179 C0.626078,1.163997 0.630494,1.163172 0.634175,1.161965 C0.638023,1.160703 0.642243,1.158644 0.645616,1.156404 C0.649136,1.154069 0.652809,1.150829 0.655582,1.147643 C0.658471,1.144325 0.661266,1.140057 0.663173,1.136093 C0.665156,1.131971 0.666784,1.126923 0.667607,1.122422 C0.668461,1.11775 0.668708,1.112248 0.668299,1.107515 C0.667874,1.102608 0.666616,1.097036 0.664913,1.092414 C0.663149,1.087627 0.660373,1.082404 0.657411,1.078251 C0.654346,1.073954 0.650155,1.069496 0.646068,1.066157 C0.641845,1.062706 0.636456,1.0594 0.631475,1.057179 C0.626332,1.054887 0.620068,1.053055 0.614505,1.052193 C0.608767,1.051304 0.602038,1.051175 0.596268,1.051822 C0.590323,1.052489 0.583597,1.054178 0.578034,1.056379 C0.572308,1.058645 0.566081,1.062137 0.561148,1.065823 C0.556073,1.069617 0.550832,1.074759 0.546927,1.079747 C0.542913,1.084875 0.539096,1.091386 0.536562,1.097385 C0.533961,1.103545 0.531925,1.111026 0.531024,1.117652 C0.5301,1.124455 0.530089,1.132411 0.530973,1.139219 C0.531881,1.146201 0.534002,1.154082 0.536702,1.160585 C0.53947,1.167252 0.543678,1.174482 0.548089,1.180195 C0.552609,1.186048 0.558703,1.192073 0.564593,1.196543 C0.570625,1.201121 0.578258,1.205449 0.585274,1.208295 C0.592454,1.211207 0.60115,1.213446 0.608842,1.214385 C0.616708,1.215346 0.625891,1.215239 0.633737,1.214115 C0.641756,1.212967 0.650792,1.210414 0.658235,1.207216 C0.665842,1.203947 0.674076,1.199023 0.680568,1.193886 C0.687199,1.18864 0.694009,1.181594 0.699045,1.174801 C0.704186,1.167866 0.709025,1.159111 0.712183,1.151077 C0.715406,1.142878 0.717849,1.132966 0.718825,1.124211 C0.719822,1.11528 0.719597,1.104869 0.718235,1.095987 C0.716846,1.086929 0.713861,1.076738 0.710164,1.068354 C0.706394,1.059808 0.700755,1.050569 0.694892,1.043298 C0.688918,1.03589 0.680921,1.028295 0.673227,1.022694 C0.665388,1.01699 0.655511,1.011639 0.646458,1.008169 C0.637241,1.004636 0.626112,1.00199 0.616293,1.000975 C0.606298,0.999942 0.59466,1.000286 0.58474,1.001886 C0.574644,1.003515 0.563298,1.006932 0.553974,1.011128 C0.544489,1.015397 0.534246,1.021754 0.526196,1.028343 C0.518008,1.035042 0.50963,1.043991 0.503464,1.052589 C0.497197,1.061331 0.491333,1.072331 0.487552,1.0824 C0.483708,1.092636 0.480858,1.104982 0.479806,1.115864 C0.478735,1.126923 0.479198,1.13979 0.481038,1.150748 C0.482906,1.16188 0.486755,1.174381 0.491451,1.184646 C0.496221,1.195071 0.503293,1.206318 0.510607,1.215147 C0.518034,1.224113 0.527935,1.233277 0.537435,1.240006 C0.54708,1.246838 0.559202,1.253212 0.57029,1.257305 C0.581544,1.261461 0.595106,1.264513 0.607052,1.265604 C0.619176,1.26671 0.63327,1.26613 0.645265,1.264051 C0.657434,1.261942 0.671092,1.257662 0.682296,1.252466 C0.693662,1.247197 0.705913,1.239408 0.71552,1.231368 C0.725265,1.223215 0.735213,1.212362 0.742541,1.201981 C0.749049,1.192761 0.757951,1.183177 0.766658,1.175992 C0.775226,1.16892 0.786139,1.162086 0.796251,1.157483 C0.806202,1.152953 0.818318,1.149249 0.829104,1.14746 C0.839717,1.145701 0.852174,1.145277 0.862878,1.146335 C0.873406,1.147375 0.885346,1.150157 0.895242,1.153898 C0.904973,1.157575 0.915599,1.163267 0.92404,1.169348 C0.932336,1.175325 0.940968,1.183442 0.947426,1.19137 C0.953772,1.199161 0.959889,1.209069 0.963992,1.218241 C0.968022,1.227252 0.971295,1.238213 0.972844,1.247962 C0.974365,1.257535 0.97467,1.268766 0.973648,1.278406 C0.972646,1.28787 0.970067,1.298594 0.966638,1.307471 C0.963272,1.316183 0.958091,1.325688 0.952575,1.333224 C0.947163,1.340619 0.93983,1.348299 0.93268,1.35403 C0.925669,1.359651 0.916765,1.365052 0.908532,1.368654 C0.900462,1.372185 0.890656,1.375026 0.881945,1.376335 C0.873408,1.377617 0.863406,1.377803 0.854829,1.376819 C0.846429,1.375854 0.836922,1.373479 0.829063,1.37036 C0.821369,1.367307 0.812987,1.362637 0.806354,1.357684 C0.799862,1.352837 0.793133,1.346288 0.788128,1.339917 C0.783233,1.333685 0.778548,1.325785 0.775447,1.318492 C0.772415,1.311362 0.770005,1.302712 0.768938,1.295037 C0.767894,1.287538 0.767825,1.278764 0.768774,1.271252 C0.7697,1.263915 0.771872,1.255624 0.774681,1.248784 C0.777423,1.242107 0.78158,1.234848 0.785969,1.229118 C0.790252,1.223529 0.796016,1.217751 0.80161,1.213474 C0.807062,1.209304 0.813958,1.205335 0.820311,1.202734 C0.826501,1.200201 0.833997,1.198224 0.840633,1.197397 C0.847095,1.196591 0.854643,1.196641 0.86109,1.197553 C0.867362,1.198441 0.874436,1.200409 0.880259,1.202908 C0.885918,1.205337 0.892055,1.208984 0.896881,1.21281 C0.901569,1.216527 0.906394,1.221507 0.909944,1.226322 C0.913389,1.230996 0.916642,1.236887 0.918741,1.242302 C0.920777,1.24755 0.922322,1.253891 0.922908,1.25949 C0.923476,1.264914 0.923308,1.271235 0.92243,1.276617 C0.921582,1.281827 0.919816,1.287685 0.917628,1.292488 C0.915512,1.297129 0.912376,1.302145 0.909112,1.306066 C0.905961,1.309853 0.901766,1.313726 0.897728,1.316548 C0.893834,1.319269 0.888946,1.321807 0.884472,1.323403 C0.880164,1.324941 0.874977,1.326054 0.870416,1.326398 C0.866029,1.326729 0.860936,1.326443 0.856618,1.3256 C0.852472,1.324791 0.84783,1.32323 0.844047,1.32135 C0.840422,1.319547 0.836527,1.316923 0.833512,1.314222 C0.830626,1.311637 0.827702,1.308225 0.82561,1.304964 C0.823612,1.301852 0.821791,1.297966 0.820698,1.294431 C0.819656,1.291065 0.818975,1.287032 0.818874,1.283509 C0.818779,1.280159 0.819183,1.276292 0.819993,1.27304 C0.82076,1.269957 0.822118,1.266529 0.823691,1.263768 C0.825178,1.261158 0.827291,1.258385 0.829432,1.256276 C0.831449,1.254289 0.834078,1.252316 0.836562,1.250955 C0.838895,1.249678 0.841777,1.248572 0.844372,1.247985 C0.846799,1.247436 0.849678,1.247186 0.852162,1.247332 C0.854477,1.247469 0.857118,1.247993 0.859301,1.248773 C0.861325,1.249495 0.863539,1.250651 0.865274,1.251919 C0.866874,1.253088 0.868527,1.254692 0.869723,1.256272 C0.870817,1.25772 0.871842,1.259568 0.872462,1.261274 C0.873028,1.262827 0.873419,1.264711 0.87349,1.266361 C0.873555,1.267851 0.873373,1.269582 0.872971,1.27102 C0.872612,1.272306 0.871968,1.273728 0.871212,1.274829 C0.87054,1.275807 0.869581,1.276812 0.868617,1.277503 C0.867768,1.278112 0.866663,1.27865 0.865651,1.278908 C0.864763,1.279134 0.863681,1.279208 0.862776,1.279067 C0.861979,1.278942 0.861078,1.278608 0.860411,1.278153 C0.859814,1.277744 0.859224,1.277104 0.858887,1.276462 C0.858572,1.27586 0.858383,1.275061 0.858406,1.274382" fill="#83ff6e"/>
</svg>
