<?xml version="1.0" encoding="utf-8"?>
<!-- Generator: Adobe Illustrator 15.1.0, SVG Export Plug-In . SVG Version: 6.00 Build 0)  -->
<!DOCTYPE svg PUBLIC "-//W3C//DTD SVG 1.1//EN" "http://www.w3.org/Graphics/SVG/1.1/DTD/svg11.dtd">
<svg version="1.1" id="AMD64-Logo" xmlns="http://www.w3.org/2000/svg" xmlns:xlink="http://www.w3.org/1999/xlink" x="0px" y="0px"
	 width="144px" height="144px" viewBox="0 0 144 144" enable-background="new 0 0 144 144" xml:space="preserve">
<path id="Logo" d="M86.652,128.261c18.972,0,39.311-3.533,54.706-8.354v21.428H2.643V98.398
	C6.213,114.564,42.603,128.261,86.652,128.261z M22.237,75.587c1.703-3.213,4.58-6.66,8.987-10.899l17.677-17.127
	c-18.182,0.243-34.452,3.047-46.259,6.792v38.771C4.158,86.462,11.276,80.402,22.237,75.587z M84.51,99.605l3.051-15.094
	L68.698,99.605H84.51z M45.441,89.826c6.453,0,12.066-4.342,12.066-9.291c0-3.199-3.106-5.334-7.765-5.334
	c-6.809,0-12.544,4.035-12.544,8.912C37.199,87.466,40.544,89.826,45.441,89.826z M102.163,92.892l-1.581,6.758h8.839l-1.554,9.016
	h-8.84l-2.628,11.955H79.557l2.629-11.955l-30.112-0.109l2.276-8.578l2.636-2.1c-3.621,1.043-7.641,1.623-11.903,1.623
	c-13.691,0-23.155-5.445-24.636-13.869c-1.706,2.607-2.621,5.352-2.621,8.186c0,17.326,34.033,31.375,76.014,31.375
	c15.979,0,32.91-2.775,47.52-6.707v-46.84C139.028,79.363,124.009,88.703,102.163,92.892z M56.193,66.366
	c10.752,0,18.28,5.485,18.28,13.407c0,1.682-0.303,3.303-0.86,4.85l20.873-16.64h13.502l-5.441,23.271
	c13.991-5.314,22.146-14.475,22.485-20.887c0.581-11.085-23.32-20.184-57.59-22.344L48.071,67.127l0.237,0.151
	C50.699,66.67,53.325,66.366,56.193,66.366z M2.643,52.981V2.664h138.716V67.56c-3.493-11.262-35.516-21.395-76.754-22.189
	C40.229,44.9,17.59,48.452,2.643,52.981z M38.732,36.66L27.214,10.743H19.73L9.276,36.66h6.845l1.936-5.134h11.585l2.136,5.134
	H38.732z M27.742,27.006h-7.974l3.802-10.072L27.742,27.006z M69.631,36.66V10.743h-5.629l-8.325,9.611l-8.333-9.611H41.73V36.66
	h6.464V20.467l6.988,8.142h0.989l6.984-8.142V36.66H69.631z M101.086,23.738c0-7.105-4.86-12.995-14.329-12.995H75.323V36.66h10.714
	C96.375,36.66,101.086,31.184,101.086,23.738z M94.433,23.699c0,3.802-1.934,8.205-8.427,8.205h-4.217V15.497h4.134
	C92.046,15.497,94.433,19.255,94.433,23.699z"/>
<g id="Trademark-Sign">
	<path id="T" fill="#FFFFFF" d="M129.615,109.983v4.496h-0.374v-4.496h-1.804v-0.311h3.981v0.311H129.615z"/>
	<path id="M" fill="#FFFFFF" d="M136.246,114.479v-4.264h-0.014l-1.818,2.248l-1.818-2.248h-0.014v4.264h-0.374v-4.807h0.374
		l1.832,2.234l1.832-2.234h0.374v4.807H136.246z"/>
</g>
<g id="AMD-Signet">
	<polygon fill="#009966" points="133.991,10.658 107.174,10.658 114.614,18.109 126.535,18.109 126.535,30.024 133.991,37.477 
		133.991,10.658 	"/>
	<polygon fill="#009966" points="114.614,30.024 114.614,19.302 107.174,26.753 107.174,37.477 117.892,37.477 125.341,30.024 
		114.614,30.024 	"/>
</g>
</svg>
