<?xml version="1.0" encoding="UTF-8" standalone="no"?>
<svg
   viewBox="0.3983 0.7485 10 10"
   version="1.1"
   id="svg1"
   sodipodi:docname="triskele.svg"
   width="10"
   height="10"
   inkscape:version="1.4.2 (ebf0e940, 2025-05-08)"
   xmlns:inkscape="http://www.inkscape.org/namespaces/inkscape"
   xmlns:sodipodi="http://sodipodi.sourceforge.net/DTD/sodipodi-0.dtd"
   xmlns="http://www.w3.org/2000/svg"
   xmlns:svg="http://www.w3.org/2000/svg">
  <defs
     id="defs1" />
  <sodipodi:namedview
     id="namedview1"
     pagecolor="#ffffff"
     bordercolor="#000000"
     borderopacity="0.25"
     inkscape:showpageshadow="2"
     inkscape:pageopacity="0.0"
     inkscape:pagecheckerboard="0"
     inkscape:deskcolor="#d1d1d1"
     showguides="true"
     inkscape:zoom="64.708498"
     inkscape:cx="2.9671528"
     inkscape:cy="8.5382912"
     inkscape:window-width="2560"
     inkscape:window-height="1382"
     inkscape:window-x="1440"
     inkscape:window-y="30"
     inkscape:window-maximized="0"
     inkscape:current-layer="svg1" />

  <path
     d="m 6.6693466,8.1389158 c 3.881e-4,-0.010972 -0.00265,-0.023907 -0.00775,-0.033621 -0.00544,-0.010368 -0.014998,-0.020686 -0.024612,-0.027279 -0.010771,-0.00735 -0.025366,-0.012734 -0.038201,-0.014747 -0.014646,-0.00229 -0.03206,-0.0011 -0.046405,0.00255 -0.016307,0.00418 -0.034174,0.012834 -0.047814,0.0228 -0.015653,0.011173 -0.031054,0.02738 -0.041925,0.043133 -0.01218,0.017767 -0.022699,0.040667 -0.028386,0.061579 -0.00649,0.023253 -0.00941,0.051186 -0.00841,0.075324 0.00115,0.026574 0.0075,0.056999 0.016659,0.082144 0.00997,0.027581 0.026574,0.057221 0.04424,0.08069 0.019327,0.025467 0.046052,0.051523 0.071861,0.070407 0.027933,0.020434 0.063814,0.039107 0.096448,0.050849 0.035181,0.012532 0.077896,0.020988 0.1152664,0.023253 0.040013,0.00236 0.086503,-0.00166 0.1257855,-0.010469 0.041925,-0.00946 0.0884,-0.027279 0.1260974,-0.047965 0.040013,-0.021894 0.082476,-0.053758 0.1151205,-0.085833 0.034527,-0.033973 0.06862,-0.078787 0.092648,-0.1209336 0.025366,-0.044593 0.04726,-0.099911 0.059792,-0.1496671 C 7.3028474,8.1087161 7.3093404,8.0461757 7.3077794,7.992116 7.3061721,7.9352342 7.2951533,7.8700565 7.2782926,7.8157401 7.2606267,7.758741 7.2312338,7.6959339 7.1989419,7.6456791 7.1651703,7.5930387 7.1179152,7.5379421 7.0713698,7.496168 7.0227507,7.452582 6.9598328,7.4101133 6.9012736,7.3810576 6.8402531,7.3506581 6.7652308,7.3255131 6.6982865,7.3124373 6.6285489,7.2987978 6.5463495,7.2942177 6.4755197,7.2996031 6.4018714,7.3051394 6.3181319,7.323208 6.2485603,7.3481215 6.1763666,7.3739409 6.0973934,7.4148443 6.034556,7.4588732 5.9693984,7.5043718 5.9016187,7.5670531 5.8507247,7.6281189 5.7980842,7.691374 5.747457,7.7724661 5.7132626,7.8473676 c -0.035332,0.077559 -0.063814,0.1721296 -0.077559,0.2562314 -0.014193,0.086835 -0.016861,0.18896 -0.0077,0.2765246 0.00946,0.090413 0.034426,0.19277 0.067276,0.2775312 0.033872,0.087394 0.086392,0.182548 0.1420321,0.257983 0.057331,0.077896 0.1352173,0.1580622 0.2108989,0.2181515 0.077896,0.061801 0.1770015,0.1206115 0.2683862,0.159849 0.093987,0.040365 0.2082164,0.072194 0.309496,0.086387 0.1040478,0.014747 0.2259426,0.015552 0.3302924,0.00255 C 7.0635635,9.3692897 7.1845525,9.3374307 7.2844983,9.2963008 7.3870916,9.2543756 7.4984171,9.1902398 7.5864347,9.1228979 7.6767373,9.0537189 7.769808,8.9605676 7.8389518,8.8703204 7.9099175,8.7777832 7.9769523,8.6606042 8.0212178,8.5527917 8.0666157,8.4423721 8.1016859,8.3084886 8.1165484,8.1900463 8.1318488,8.0688007 8.1307415,7.9270757 8.1139171,7.8060112 8.0967042,7.6821736 8.0577032,7.5424517 8.0088627,7.4273162 7.9587841,7.3096238 7.8831327,7.1820165 7.8040991,7.0813911 7.7232988,6.9785714 7.6146559,6.8727923 7.5098481,6.7945287 7.4027805,6.7146193 7.2674223,6.6392044 7.143177,6.5898657 7.0162994,6.5395857 6.8627971,6.5012411 6.727167,6.4855944 6.5886984,6.4696146 6.4272036,6.4727401 6.2893842,6.4934258 6.1487363,6.5145494 5.9903972,6.5603691 5.8601072,6.617422 5.72719,6.6755384 5.5834367,6.7627406 5.4702389,6.8535465 5.3547913,6.9460837 5.2363943,7.0700925 5.149021,7.1894709 5.0599515,7.3112097 4.9762925,7.4645862 4.9219459,7.6052694 4.8665826,7.7486453 4.8249594,7.9217361 4.8087631,8.0745439 c -0.016508,0.1556464 -0.011576,0.3369662 0.012985,0.4915355 0.025014,0.1574231 0.077851,0.3343843 0.1429228,0.479869 0.06623,0.1480566 0.1649928,0.3080766 0.2674702,0.433847 0.1042693,0.1280301 0.2436338,0.2590801 0.3775878,0.3555632 0.1362894,0.098124 0.3078401,0.1900774 0.4649612,0.2494674 0.1597684,0.06035 0.3525636,0.105275 0.5225395,0.122061 0.1728241,0.01711 0.3739439,0.01027 0.5452938,-0.01822 C 7.3166765,10.159828 7.5123103,10.10004 7.6729756,10.02684 7.836242,9.9525225 8.0124181,9.8421935 8.150776,9.7279991 8.2913585,9.6120734 8.4350917,9.4572726 8.5407048,9.3087379 8.6479938,9.1579282 8.7481511,8.9681982 8.8125587,8.7946362 8.8779378,8.6184148 8.9261743,8.4059959 8.9435634,8.2188322 8.9612293,8.0288304 8.9524719,7.8078604 8.9202102,7.6197711 8.8874452,7.4288633 8.8206317,7.2146023 8.7394389,7.0387594 8.6570734,6.8602933 8.5351534,6.6679309 8.4092572,6.5169688 8.281529,6.3639039 8.1114177,6.2074301 7.9483174,6.0926987 7.7828718,5.9762908 7.5750782,5.8679071 7.3850864,5.7984488 7.1924372,5.7280407 6.9603593,5.6765423 6.7560521,5.6578224 6.5745913,5.6411682 6.3687204,5.5942316 6.1979955,5.5304285 6.0299226,5.4678438 5.8462674,5.370267 5.7002794,5.2660405 5.5566117,5.1635575 5.4069898,5.0239599 5.2949093,4.8875805 5.1846055,4.7534141 5.0781519,4.5826127 5.0065319,4.4244071 4.9360897,4.2687607 4.8785924,4.0794076 4.8510013,3.9108417 4.8238733,3.7450699 4.8176827,3.5505534 4.8345433,3.3834406 4.8511523,3.2191888 4.8949598,3.0329426 4.953665,2.8786483 5.0113787,2.7270364 5.1005288,2.5615102 5.1956731,2.4301044 5.2891012,2.3009896 5.4159637,2.1667558 5.5397661,2.0663851 5.661359,1.9678138 5.8159233,1.8729082 5.958972,1.8093734 6.0993985,1.7470124 6.270154,1.6964634 6.4219653,1.6727482 6.570963,1.6495022 6.7456745,1.6451432 6.8955782,1.6614602 c 0.1470852,0.015981 0.3136734,0.05655 0.451528,0.1101942 0.1352072,0.052638 0.2825944,0.1335406 0.399416,0.2195837 0.1145517,0.084378 0.2334218,0.1985283 0.3220433,0.3097733 0.086835,0.1089651 0.170207,0.2473557 0.2256659,0.3752304 0.054316,0.1252479 0.097787,0.277352 0.1176923,0.4124123 0.019327,0.1322664 0.021793,0.2871417 0.00609,0.4198889 -0.0153,0.1298974 -0.052641,0.2768487 -0.1012545,0.398275 C 8.2690461,4.0254841 8.196485,4.1548671 8.1195501,4.2570819 8.0443365,4.3569945 7.9428153,4.4605722 7.8441428,4.5374623 7.7476949,4.6125641 7.6255786,4.6843915 7.512879,4.7317664 7.4027966,4.778035 7.2693459,4.8145798 7.1510396,4.8305612 7.0355366,4.8462088 6.9004753,4.846541 6.784917,4.8314809 6.6721873,4.8167291 6.5448819,4.7827562 6.4399181,4.7390564 6.3375463,4.696477 6.2264271,4.6322148 6.138782,4.5642433 6.0533966,4.4981939 5.9652331,4.4092452 5.9000755,4.3231905 c -0.063366,-0.083819 -0.1236413,-0.1898 -0.1629644,-0.287321 -0.038201,-0.094995 -0.06784,-0.209682 -0.079799,-0.3112369 -0.011727,-0.098683 -0.010267,-0.2140068 0.00425,-0.3123774 0.014193,-0.095554 0.044794,-0.203211 0.083483,-0.2917238 0.037446,-0.085942 0.093655,-0.1789483 0.152395,-0.2520163 0.056999,-0.070855 0.1331588,-0.1436214 0.2067316,-0.1970083 0.071192,-0.051744 0.1609864,-0.1003595 0.2433318,-0.131585 0.079683,-0.030173 0.1758439,-0.05275 0.2606655,-0.06102 0.082028,-0.0079 0.1774394,-0.00454 0.2586222,0.00943 0.078344,0.013524 0.166407,0.040903 0.2384698,0.074543 0.069516,0.032524 0.1444278,0.080355 0.2028763,0.1300092 0.056325,0.047834 0.1137163,0.1113119 0.1553545,0.1723767 0.040013,0.058673 0.077111,0.1321995 0.1002479,0.1993667 0.022145,0.064485 0.037798,0.142023 0.042026,0.2100841 0.00407,0.065267 -0.00119,0.140883 -0.014646,0.2048538 -0.012834,0.061244 -0.036993,0.1296402 -0.065716,0.1852069 -0.02738,0.053085 -0.067055,0.1099706 -0.1076212,0.1537242 -0.038654,0.041799 -0.089517,0.083819 -0.1380107,0.1136589 -0.046052,0.028386 -0.1033784,0.053868 -0.1554098,0.068732 -0.049374,0.014193 -0.1081799,0.0228 -0.1595017,0.023021 C 6.9163395,4.0242 6.8604725,4.0170083 6.813771,4.0040123 6.769631,3.9918323 6.720902,3.9709303 6.6818302,3.9473503 6.6451901,3.9251093 6.6063951,3.8935943 6.5772237,3.8620783 6.5499447,3.8324643 6.5232447,3.7942403 6.5052517,3.758478 6.4884917,3.725064 6.4744997,3.683935 6.4678057,3.6470543 c -0.00624,-0.034089 -0.00795,-0.074431 -0.00425,-0.1088533 0.00344,-0.031849 0.012532,-0.067838 0.025014,-0.097342 0.011375,-0.027047 0.02894,-0.056327 0.047713,-0.07879 0.017112,-0.020339 0.040365,-0.041125 0.062807,-0.055432 0.020233,-0.012965 0.046052,-0.024365 0.06929,-0.030399 0.020887,-0.00536 0.046052,-0.00785 0.067503,-0.00615 0.019126,0.0015 0.040919,0.00678 0.058338,0.014641 0.0153,0.00696 0.031859,0.018104 0.043586,0.030173 0.010267,0.010584 0.020132,0.025145 0.025367,0.03889 0.0047,0.01218 0.0073,0.02738 0.00629,0.040455 -9.039e-4,0.011621 -0.00508,0.025034 -0.011375,0.034869 -0.00589,0.00929 -0.015552,0.018441 -0.025266,0.02358 -0.00971,0.00515 -0.019327,0.014193 -0.025266,0.02358 -0.00624,0.00988 -0.010368,0.023358 -0.011274,0.034869 -0.001,0.012965 0.0016,0.028276 0.00629,0.040455 0.00534,0.013745 0.015099,0.028276 0.025367,0.03889 0.011727,0.012069 0.028185,0.023132 0.043586,0.030173 0.017414,0.0079 0.039207,0.013187 0.058338,0.014752 0.021441,0.00168 0.046606,-7.912e-4 0.067503,-0.00617 0.023353,-0.00596 0.049072,-0.017434 0.06929,-0.030399 0.022598,-0.014304 0.0457,-0.03498 0.062807,-0.055432 C 7.1482367,3.520952 7.1659027,3.49167 7.1772777,3.464624 7.1898097,3.43512 7.1988697,3.399133 7.2021917,3.367282 7.2059017,3.33275 7.2041817,3.292515 7.1979617,3.258317 7.1912207,3.2215508 7.1771786,3.1803092 7.1605193,3.1468934 7.1425514,3.111018 7.115826,3.0726854 7.088547,3.0432931 7.0593554,3.0117762 7.0207068,2.9803727 6.9839405,2.958021 6.9448339,2.9343305 6.8959884,2.9134284 6.8519645,2.9012474 6.8051573,2.8883931 6.7493712,2.8811304 6.700878,2.8814676 c -0.051297,2.917e-4 -0.1101931,0.00899 -0.1595016,0.023132 -0.052082,0.014973 -0.1093023,0.040455 -0.1553998,0.068843 -0.048518,0.029841 -0.099352,0.071861 -0.1380207,0.1137036 -0.040566,0.043808 -0.080242,0.1006948 -0.1076213,0.1537243 -0.028738,0.055544 -0.052862,0.1239967 -0.065716,0.1852069 -0.013388,0.064038 -0.018673,0.1396091 -0.014646,0.2048537 0.00423,0.068061 0.019881,0.1455884 0.042026,0.2100841 0.023001,0.067167 0.060125,0.1407824 0.1002478,0.1993779 0.041673,0.06102 0.09902,0.1244884 0.1553545,0.1723545 0.058448,0.049731 0.1333752,0.097565 0.2028511,0.1299754 0.071972,0.033751 0.1601057,0.06102 0.2384699,0.074543 0.081248,0.013972 0.176624,0.017324 0.2586221,0.00945 C 7.142371,4.418546 7.2385166,4.395869 7.3182096,4.365696 7.4004646,4.334516 7.4902737,4.285789 7.5615413,4.234111 7.6350793,4.18069 7.7112739,4.1078459 7.7682528,4.0371027 7.8270388,3.9641247 7.8831317,3.8710178 7.9206479,3.785098 7.9593019,3.696585 7.9899379,3.588894 8.0041309,3.4933626 8.0186759,3.3949026 8.0201359,3.2797357 8.0083909,3.1809852 7.9963134,3.0793935 7.9667192,2.9645946 7.928599,2.8697452 7.8893918,2.7721795 7.8291313,2.666277 7.7656548,2.5824353 7.7004972,2.4962694 7.6123437,2.4074767 7.5269483,2.3413604 7.4393284,2.2735227 7.3281287,2.2091387 7.2258022,2.1665693 7.1208585,2.1228726 6.993533,2.0888971 6.8807932,2.0741448 6.7652449,2.0590558 6.6301836,2.0595038 6.5146706,2.0750657 6.3963643,2.0910456 6.2628884,2.1275924 6.1528513,2.1738605 6.0401517,2.2212465 5.9180102,2.293018 5.8215774,2.3681535 c -0.098683,0.07689 -0.2001736,0.1804013 -0.2754173,0.2803694 -0.07689,0.1022595 -0.1495564,0.2315082 -0.197189,0.3502856 -0.04872,0.1214147 -0.085944,0.2683555 -0.1013652,0.398275 -0.015753,0.1327361 -0.013287,0.2876225 0.00609,0.4198778 0.01988,0.1349823 0.063366,0.2871645 0.1177024,0.4124013 0.055434,0.1278746 0.138826,0.2662321 0.2256759,0.3752414 0.088627,0.1112002 0.2075268,0.2254288 0.3220433,0.3097506 0.1168216,0.086054 0.2642188,0.1669345 0.3994009,0.2196061 0.1378647,0.053756 0.3044428,0.094213 0.451528,0.1103059 0.1499138,0.016317 0.3246253,0.011958 0.4736331,-0.011289 C 7.3954907,5.209287 7.5662613,5.1586578 7.7066727,5.0963856 7.8497013,5.0327949 8.0042656,4.9378332 8.1258686,4.8393625 8.249676,4.7388912 8.3765335,4.6047696 8.4700069,4.4756659 8.565116,4.3442374 8.6542962,4.1787339 8.7119848,4.0271104 8.7707705,3.8727489 8.814578,3.6865702 8.8311064,3.5223181 8.8479671,3.355216 8.8417765,3.160689 8.8146988,2.9949393 8.7872134,2.8263525 8.7297695,2.6369324 8.6593056,2.4813418 8.587668,2.3231248 8.4811953,2.1523461 8.3709121,2.0181685 8.2588512,1.8818014 8.1092399,1.7422929 7.9655626,1.6397095 7.8195494,1.535472 7.6359189,1.4380496 7.4678556,1.3753227 7.2971217,1.3115867 7.0912396,1.2644803 6.9098106,1.2472874 6.7255414,1.2298192 6.5111797,1.2379068 6.3286756,1.2689128 6.1433595,1.3003727 5.9352841,1.3648465 5.7644948,1.4433348 5.5911221,1.5230524 5.4041149,1.6411043 5.257378,1.7630847 5.1084357,1.8869022 4.9562621,2.0518806 4.8445641,2.2101311 4.7312203,2.3707174 4.6255469,2.5724754 4.5577822,2.7569894 4.4890411,2.9441632 4.4386454,3.1696927 4.4208335,3.368299 c -0.018069,0.2014676 -0.00805,0.4356358 0.026776,0.6348908 0.035332,0.20206 0.1067857,0.4287963 0.1927801,0.6150535 0.076396,0.1654256 0.138529,0.3672842 0.168707,0.5470148 0.029695,0.1769029 0.037194,0.3846738 0.019881,0.5632086 C 4.8119652,5.9041742 4.7659784,6.1035068 4.7039111,6.2687648 4.6428554,6.4313401 4.5482043,6.6089476 4.4470002,6.7500979 4.347467,6.8889591 4.2121742,7.0333818 4.0799767,7.1415668 3.9500038,7.2479599 3.7846236,7.3505783 3.6314786,7.4195006 3.4809357,7.4873358 3.2977486,7.5423669 3.134754,7.5686896 2.974588,7.5945091 2.7866698,7.6000957 2.6252923,7.5834364 2.4667907,7.5672308 2.2871046,7.5245407 2.138289,7.4674963 1.9921375,7.4115039 1.8326499,7.3250918 1.7061166,7.2329824 1.5818587,7.1425691 1.4527414,7.0199343 1.3562879,6.9003093 1.2616282,6.7829291 1.1705803,6.6337401 1.1097098,6.4957538 1.0500196,6.3604585 1.0018289,6.1958488 0.97941481,6.0496238 0.95742051,5.9062484 0.95377658,5.738107 0.96987221,5.5939269 0.98565071,5.4524847 1.025081,5.2925245 1.0771159,5.1601348 1.1281116,5.0304835 1.2062332,4.8890635 1.2892384,4.7770927 1.370543,4.6674572 1.4805005,4.5536645 1.5875621,4.4689511 1.6923804,4.3859142 1.8253233,4.3065096 1.9481443,4.2537373 2.0683164,4.202105 2.2142097,4.1608659 2.3436824,4.1423137 c 0.1266798,-0.018104 0.2749613,-0.019891 0.4019798,-0.00438 0.1241598,0.015089 0.2645611,0.051297 0.3804868,0.098348 0.1132985,0.045931 0.2365372,0.1157597 0.3339112,0.1897104 0.095094,0.072196 0.1935048,0.1694822 0.2664686,0.2639632 0.071248,0.092201 0.1391733,0.2089889 0.1838515,0.3166127 0.043586,0.1049416 0.077841,0.232246 0.092492,0.3449657 0.014294,0.1099706 0.014092,0.2383702 -8.234e-4,0.3482181 -0.014545,0.107065 -0.047411,0.2277757 -0.089417,0.3272409 -0.040918,0.096788 -0.1025276,0.2019864 -0.167348,0.2847661 -0.063044,0.080578 -0.147669,0.1635704 -0.2296067,0.2248143 -0.079653,0.059566 -0.1801874,0.1159257 -0.2726341,0.1524152 -0.089809,0.035533 -0.198412,0.062807 -0.2944019,0.073648 -0.093161,0.010469 -0.2018043,0.00835 -0.2944522,-0.00599 C 2.5643796,6.7426553 2.4632344,6.7131618 2.3802121,6.6760683 2.2997793,6.6402835 2.2127648,6.5867724 2.1445808,6.5310819 2.0785983,6.4772146 2.0109429,6.4051411 1.9614561,6.3358394 1.9136323,6.2688956 1.8688082,6.184395 1.8403152,6.1071471 1.8128252,6.0326041 1.7925162,5.9425712 1.7856652,5.8633342 1.7790452,5.7870032 1.7830452,5.6980873 1.7968232,5.6226392 1.8101102,5.5498842 1.8364082,5.4684454 1.8684272,5.4019269 1.8991942,5.3377769 1.9443232,5.2690454 1.9909743,5.2154461 2.0357433,5.1639251 2.0950664,5.1116223 2.1518822,5.074004 2.2063542,5.037796 2.2744762,5.004602 2.3366049,4.98415 2.3960379,4.964592 2.4673373,4.951405 2.5298213,4.948385 c 0.059679,-0.00281 0.1287137,0.0031 0.1869514,0.016317 0.055489,0.012628 0.1173802,0.035765 0.1674639,0.062585 0.047612,0.025704 0.098391,0.062585 0.1373362,0.1001361 0.036942,0.035765 0.073885,0.082255 0.0998,0.1265781 0.024511,0.041799 0.046203,0.093766 0.058393,0.140794 0.011475,0.044255 0.017867,0.096783 0.01681,0.1425705 -9.527e-4,0.042917 -0.00876,0.092201 -0.021491,0.1331941 -0.011928,0.038331 -0.031658,0.080578 -0.053778,0.1141505 -0.020585,0.031406 -0.049223,0.063926 -0.07776,0.088178 -0.026474,0.022462 -0.060482,0.044145 -0.09221,0.058114 -0.029242,0.012965 -0.065032,0.023021 -0.096795,0.027158 -0.029091,0.00362 -0.0632,0.00302 -0.092054,-0.00208 -0.026272,-0.00462 -0.055766,-0.014304 -0.079416,-0.0266 -0.02134,-0.011178 -0.044089,-0.027606 -0.06093,-0.044925 -0.015099,-0.015421 -0.02975,-0.035765 -0.039071,-0.055432 -0.00823,-0.017324 -0.014561,-0.038779 -0.016453,-0.057779 -0.00165,-0.016765 -2.421e-4,-0.036656 0.00431,-0.052862 0.004,-0.014193 0.011722,-0.030062 0.020988,-0.041573 0.00817,-0.010091 0.020117,-0.020006 0.031874,-0.025704 0.010569,-0.00505 0.024259,-0.00815 0.035936,-0.00769 0.010972,4.515e-4 0.023655,0.00428 0.032966,0.010091 0.00931,0.00583 0.021994,0.00965 0.032966,0.010091 0.011677,4.839e-4 0.025417,-0.00262 0.035936,-0.00769 0.011727,-0.00563 0.023705,-0.015537 0.031859,-0.025704 0.00926,-0.011621 0.017012,-0.027269 0.020988,-0.041462 0.00455,-0.016317 0.00594,-0.035986 0.00431,-0.052862 -0.00187,-0.01911 -0.0082,-0.040566 -0.016458,-0.057779 -0.00926,-0.019332 -0.023957,-0.040007 -0.039056,-0.055432 -0.01681,-0.017324 -0.03956,-0.033752 -0.06093,-0.044925 -0.023655,-0.012296 -0.053154,-0.021904 -0.079416,-0.0266 -0.028879,-0.00509 -0.062965,-0.0057 -0.092056,-0.00208 -0.031738,0.00396 -0.067536,0.014193 -0.096794,0.027047 -0.031718,0.014082 -0.065759,0.035765 -0.092212,0.058114 -0.028522,0.024249 -0.057176,0.056997 -0.077762,0.088178 -0.022105,0.033641 -0.041855,0.075884 -0.053778,0.1141506 -0.012718,0.041014 -0.020555,0.090189 -0.021501,0.1331941 -0.00103,0.04571 0.00535,0.098348 0.016831,0.1425705 0.012205,0.046938 0.033907,0.098795 0.058416,0.1407939 0.025915,0.044256 0.062876,0.09086 0.0998,0.1265782 0.038925,0.037551 0.08972,0.074431 0.1373347,0.1001361 0.050079,0.027047 0.1119542,0.050069 0.167464,0.062585 0.058237,0.013297 0.1272601,0.01911 0.1869367,0.016317 0.062485,-0.00294 0.1337829,-0.016317 0.1932179,-0.035765 0.062128,-0.020339 0.1302648,-0.053644 0.1847222,-0.089854 0.056844,-0.037545 0.1161376,-0.08996 0.1609114,-0.1414359 C 3.4410777,6.0381288 3.4861987,5.9692292 3.516986,5.9052921 3.548996,5.8386841 3.575289,5.757234 3.588581,5.6845682 3.602371,5.6092432 3.606348,5.5203053 3.599754,5.4438843 3.5929092,5.3646473 3.5725758,5.2746925 3.5450803,5.2000713 3.5165934,5.1227344 3.4717793,5.0384568 3.4239555,4.9714018 3.3744808,4.9019994 3.3068017,4.8299596 3.2408137,4.7761369 3.1726313,4.7204812 3.0856203,4.6669484 3.0051975,4.631152 2.9221627,4.5941593 2.821024,4.5646556 2.7312046,4.5505737 2.6385566,4.5362699 2.5299157,4.5341459 2.4367548,4.5445844 c -0.09599,0.010781 -0.2045825,0.03811 -0.2944009,0.073649 -0.092447,0.036656 -0.1929894,0.092983 -0.2726366,0.1524167 -0.081942,0.061244 -0.16656,0.1443477 -0.2296072,0.2248143 -0.064809,0.082813 -0.1264372,0.1879227 -0.1673497,0.2847727 -0.042001,0.099465 -0.074867,0.2202433 -0.089418,0.3272298 -0.014918,0.1097472 -0.015099,0.2382923 -8.234e-4,0.3482181 0.014661,0.1126976 0.048906,0.2399798 0.092491,0.3449657 0.044693,0.1077355 0.1126326,0.2243789 0.183851,0.3166137 0.072978,0.094435 0.171371,0.1917785 0.2664686,0.2639521 0.097386,0.073986 0.2206318,0.1438691 0.3339096,0.1897451 0.1159263,0.046958 0.2563301,0.083151 0.3805221,0.098345 0.1270034,0.015552 0.2752663,0.01374 0.4019476,-0.00436 C 3.1711838,7.1463763 3.3170761,7.1051558 3.4372447,7.053527 3.5600657,7.0006652 3.6930081,6.9212842 3.7978259,6.8383148 3.9048885,6.7536039 4.01484,6.6398524 4.0961486,6.5301727 4.1791633,6.4182794 4.2572809,6.2768373 4.3082705,6.1471301 4.360307,6.0147293 4.3997559,5.8547132 4.4155143,5.7133606 4.43162,5.5691805 4.4279962,5.4010618 4.4060019,5.2576638 4.3836049,5.1113829 4.3353835,4.9468738 4.2756917,4.8115116 4.2148173,4.6734672 4.1237748,4.5243582 4.0291137,4.4069669 3.9326657,4.2873288 3.8035434,4.1647298 3.6793182,4.0742943 3.5527527,3.9823167 3.3932812,3.895804 3.247112,3.8397794 3.0982955,3.7827824 2.9186114,3.7399785 2.760076,3.7236956 2.5987,3.7069306 2.4107965,3.7126179 2.2506317,3.7384474 2.0876235,3.7647098 1.9044354,3.8199196 1.7538925,3.8876344 1.6007506,3.9565899 1.4353698,4.0592068 1.3053964,4.1655899 1.1731949,4.2737723 1.0379272,4.4182318 0.93837245,4.5570588 0.83718595,4.6981768 0.74250966,4.8758175 0.68146256,5.0383818 0.61940282,5.2036508 0.57338081,5.4029839 0.55639787,5.5786799 c -0.0172885,0.1785572 -0.009814,0.3863055 0.0198955,0.563231 0.0301629,0.179742 0.0923128,0.3815784 0.16812527,0.5473052 0.0770129,0.1683196 0.19119722,0.3499162 0.30928816,0.4924566 0.1199139,0.1448304 0.2797724,0.2927209 0.4331569,0.4013689 0.1557259,0.1103038 0.3514448,0.2132242 0.5304678,0.2793078 0.1817029,0.067166 0.4006723,0.1164089 0.5935475,0.1340094 0.1957495,0.017867 0.4233078,0.00851 0.6169757,-0.025014 C 3.424334,7.9373717 3.6448511,7.8681928 3.8257466,7.7842922 4.0092609,7.6992441 4.2070589,7.5734687 4.3621722,7.4436519 4.5195097,7.3120684 4.6801287,7.1367831 4.7984451,6.9691783 4.9035197,6.8203164 5.0472529,6.665576 5.1878304,6.5495697 5.3261681,6.4354192 5.5023236,6.3250464 5.665595,6.2507267 5.8262593,6.1776367 6.0219238,6.1178452 6.1960656,6.0888997 6.367415,6.0605137 6.5685448,6.0536937 6.7413704,6.0707957 c 0.1699855,0.016765 0.3627555,0.061691 0.5225395,0.122063 0.157111,0.059456 0.3286718,0.1512767 0.4649612,0.249457 0.133954,0.09656 0.2733085,0.2275633 0.3775878,0.3555608 0.1024825,0.1257854 0.2012204,0.2857652 0.2674752,0.4338469 0.065042,0.1454747 0.1179188,0.3224561 0.1429179,0.479869 C 8.541463,7.8661114 8.546345,8.0474816 8.529837,8.203128 8.5136308,8.3558554 8.4719473,8.5290821 8.4166595,8.6724026 8.362343,8.8130305 8.2786589,8.9665277 8.1895995,9.0882012 8.102206,9.2076802 7.9838292,9.3315984 7.8683816,9.4241256 7.7551787,9.5148761 7.6114254,9.6020783 7.478488,9.66025 7.3481981,9.7172441 7.189859,9.7630698 7.0492211,9.7842437 6.9113866,9.8049295 6.7498969,9.8079493 6.6114182,9.7920449 6.4757982,9.7763922 6.3222959,9.7381764 6.1954083,9.6877757 6.071178,9.6385023 5.93585,9.5631327 5.8287623,9.4831126 5.7239344,9.4047685 5.6153015,9.2991253 5.5344912,9.1962502 5.4554777,9.0956651 5.3798162,8.9680729 5.3297476,8.8503252 5.2807763,8.7352047 5.2419062,8.5955483 5.2246933,8.4716301 5.2078326,8.3505405 5.2067253,8.208896 5.2220459,8.0876051 5.2370443,7.9690974 5.2721245,7.8352893 5.3173765,7.7248446 5.3616168,7.6169969 5.4288027,7.4998431 5.4996325,7.407326 5.5688114,7.3171341 5.661852,7.2237966 5.7521646,7.1547385 5.8402325,7.0873462 5.9515329,7.023311 6.054101,6.9813356 c 0.099911,-0.040919 0.22097,-0.072752 0.3281131,-0.086276 0.104385,-0.013086 0.2261994,-0.01218 0.3302924,0.00252 0.1012545,0.014294 0.2154841,0.046153 0.309491,0.086392 0.09142,0.039207 0.1904497,0.098124 0.2683761,0.159849 0.075661,0.060014 0.1535929,0.1404718 0.210899,0.2181616 0.055544,0.075324 0.1081849,0.1705794 0.142037,0.2580081 0.032866,0.084827 0.05789,0.1871179 0.067277,0.2775212 0.00916,0.087504 0.00644,0.1896344 -0.0077,0.2765246 -0.01364,0.084041 -0.042227,0.1787026 -0.077559,0.2562515 C 7.591253,8.5051627 7.5405,8.5862548 7.4878293,8.6495099 7.4369807,8.7107518 7.369221,8.7731815 7.3040181,8.8187555 7.2411003,8.8626939 7.1622277,8.9036929 7.0899886,8.9295073 7.0204725,8.9543201 6.9366877,8.972288 6.8630494,8.977774 6.7921945,8.983109 6.709985,8.9785003 6.6402675,8.9649398 6.5733232,8.9518539 6.4983764,8.9265881 6.4372905,8.8963195 6.3787312,8.8672789 6.3158738,8.8247952 6.2671943,8.7812091 6.2205885,8.739435 6.173429,8.684424 6.1396121,8.631698 6.1073001,8.5814181 6.078033,8.5186763 6.0602614,8.461637 6.0434008,8.4072099 6.0324288,8.342153 6.0307679,8.2852949 c -0.00153,-0.05409 0.00499,-0.116575 0.018119,-0.1690242 0.012381,-0.049726 0.034325,-0.1050544 0.059792,-0.1496671 0.024008,-0.042127 0.058116,-0.086835 0.092648,-0.1209336 0.032513,-0.032161 0.074992,-0.063924 0.1151204,-0.085833 0.037647,-0.020686 0.084152,-0.038352 0.1260975,-0.047965 0.039107,-0.00886 0.085607,-0.012834 0.1257754,-0.010569 0.037446,0.00221 0.08002,0.01067 0.1152664,0.023253 0.032614,0.011626 0.068394,0.0304 0.096448,0.050849 0.025819,0.018874 0.052525,0.044693 0.071861,0.070186 0.017666,0.023454 0.034174,0.05331 0.04424,0.08069 0.00916,0.025014 0.015401,0.055544 0.016659,0.082144 0.00105,0.024007 -0.00189,0.052082 -0.00841,0.075324 -0.00579,0.020887 -0.016206,0.043687 -0.028386,0.061579 -0.010871,0.015854 -0.026272,0.03196 -0.041925,0.043133 -0.01374,0.00981 -0.031507,0.018572 -0.047814,0.022699 C 6.7719656,8.21481 6.7544006,8.216 6.7398546,8.21373 6.7270206,8.21171 6.7124746,8.20633 6.7016536,8.198983 6.6920436,8.192393 6.6824276,8.182122 6.6770426,8.171704 6.6719626,8.161994 6.6688926,8.149005 6.6692926,8.138083"
     fill="currentColor"
     id="path1"
     inkscape:label="path1"
     style="stroke-width:16.1458"
     sodipodi:nodetypes="cccsccccccccccccccccccccccccccsccccccccccccsccccccccccccccccccccccccccccccccccccccccccccsccccccccccccccccccccccsccccccccccccccccccccccccccccccccccccccccccccccccccccccccccccccscccscccsccccccccccccccccccccccscccccccccccccccccccccccccccsccccccccccccccccccccccccccccccccccccccccccccccccccccccccccccccccccccccccccccccccccccccccccsccccccccccccccccccccccccccccccccccccccsscccccccccccccccccccccccccccccccccccccccccccc" />
</svg>
